<svg width="182" height="133" viewBox="0 0 182 133" fill="none" xmlns="http://www.w3.org/2000/svg">
<path d="M91 48.0415C40.7333 48.0415 0 56.1404 0 66.1369C0 76.1335 40.7483 84.2323 91 84.2323C141.252 84.2323 182 76.1335 182 66.1369C182 56.1404 141.252 48.0415 91 48.0415ZM91 82.1254C52.8218 82.1254 21.8908 74.9679 21.8908 66.1519C21.8908 57.3358 52.8368 50.1633 91 50.1633C129.163 50.1633 160.109 57.3208 160.109 66.1519C160.109 74.9829 129.178 82.1254 91 82.1254Z" fill="#5B1DD6"/>
<path d="M91.0003 0C88.6095 66.1356 91.0003 66.1356 49.1462 66.1356C91.0003 66.1356 87.9072 66.1356 91.0003 132.271C93.3911 66.1356 91.0003 66.1356 132.854 66.1356C91.0003 66.1356 94.0934 66.1356 91.0003 0Z" fill="#5B1DD6"/>
</svg>
