<svg width="153" height="153" viewBox="0 0 153 153" fill="none" xmlns="http://www.w3.org/2000/svg">
<path d="M95.3409 90.2439C107.293 80.2081 125.626 76.2174 152.435 76.2174C125.626 76.2174 107.293 72.2268 95.3409 62.1909C98.6599 55.2961 104.35 48.0656 112.469 39.9657C104.369 48.0656 97.1189 53.7552 90.2439 57.0939C80.2081 45.1417 76.2174 26.8085 76.2174 0C76.2174 26.8085 72.2268 45.1417 62.1909 57.0939C55.2961 53.775 48.0656 48.0853 39.9657 39.9657C48.0656 48.0656 53.7552 55.3159 57.0939 62.1909C45.1417 72.2268 26.8085 76.2174 0 76.2174C26.8085 76.2174 45.1417 80.2081 57.0939 90.2439C53.775 97.1387 48.0853 104.369 39.9657 112.469C48.0656 104.369 55.3159 98.6796 62.1909 95.3409C72.2268 107.293 76.2174 125.626 76.2174 152.435C76.2174 125.626 80.2081 107.293 90.2439 95.3409C97.1387 98.6599 104.369 104.349 112.469 112.469C104.35 104.369 98.6599 97.1387 95.3409 90.2439Z" fill="#5B1DD6"/>
</svg>
