<svg width="186" height="100" viewBox="0 0 186 100" fill="none" xmlns="http://www.w3.org/2000/svg">
<g clip-path="url(#clip0_24_132)">
<path d="M19.3451 49.9593C19.3451 27.4717 64.2865 3.85207 110.377 2.34839C49.0132 3.3621 0 24.2784 0 49.9593C0 75.6232 49.0132 96.5395 110.377 97.5532C64.2865 96.0495 19.3451 72.4469 19.3451 49.9593Z" fill="#5B1DD6"/>
<path d="M173.937 99.9017C143.897 99.4118 115.817 94.1742 94.8501 85.169C73.1903 75.8597 61.2454 63.3573 61.2454 49.9593C61.2454 36.5614 73.1734 24.0589 94.8501 14.7496C115.817 5.7275 143.897 0.489963 173.937 0L174.055 4.69688C130.094 6.13298 85.3042 28.9585 85.3042 49.9593C85.3042 70.9432 130.094 93.7687 174.055 95.2048L173.937 99.9017ZM120.159 11.3874C87.7878 19.4296 65.9591 33.8581 65.9591 49.9593C65.9591 66.0436 87.7878 80.4722 120.159 88.5143C96.8268 78.8671 80.5904 64.3879 80.5904 49.9593C80.5904 35.5139 96.8437 21.0177 120.159 11.3874Z" fill="#5B1DD6"/>
<path d="M141.65 58.7462C151.597 58.7462 159.66 54.8052 159.66 49.9438C159.66 45.0823 151.597 41.1414 141.65 41.1414C131.703 41.1414 123.64 45.0823 123.64 49.9438C123.64 54.8052 131.703 58.7462 141.65 58.7462Z" fill="#5B1DD6"/>
<path d="M174.815 55.7364C180.992 55.7364 186 53.1419 186 49.9413C186 46.7408 180.992 44.1462 174.815 44.1462C168.638 44.1462 163.631 46.7408 163.631 49.9413C163.631 53.1419 168.638 55.7364 174.815 55.7364Z" fill="#5B1DD6"/>
</g>
<defs>
<clipPath id="clip0_24_132">
<rect width="186" height="99.9017" fill="white"/>
</clipPath>
</defs>
</svg>
