<svg width="225" height="24" viewBox="0 0 225 24" fill="none" xmlns="http://www.w3.org/2000/svg">
<path d="M213.63 10.0607L211.539 12.6386H215.721L213.63 10.0607ZM211.081 6.91001H216.179L224.299 16.935H219.201L218.041 15.5029H209.219L208.059 16.935H202.96L211.081 6.91001Z" fill="#D8F602"/>
<path d="M183.337 16.935V6.91001H187.863V10.2039H197.859V6.91001H202.385V16.935H197.859V13.6411H187.863V16.935H183.337Z" fill="#D8F602"/>
<path d="M177.468 10.3471H168.102V11.4929H177.468C177.869 11.4929 178.098 11.278 178.098 10.92C178.098 10.562 177.869 10.3471 177.468 10.3471ZM168.102 16.935H163.576V6.91001H178.614C181.12 6.91001 182.624 8.91501 182.624 10.92C182.624 12.925 181.12 14.93 178.614 14.93H168.102V16.935Z" fill="#D8F602"/>
<path d="M145.237 16.935V6.91001H149.762V13.4979H162.422V16.935H145.237Z" fill="#D8F602"/>
<path d="M144.662 16.9348H139.564L138.404 15.5026H138.402L136.08 12.6395H136.083L135.302 11.6772L133.993 10.0555L128.401 16.9348H123.323L131.444 6.91001H136.542L144.662 16.9348H144.662Z" fill="#D8F602"/>
<path d="M22.0137 6.91001H40.7228V9.50065H26.5619V10.6521H40.7228V13.2427H26.5619V14.3941H40.7228V16.9848H22.0137V6.91001Z" fill="#D8F602"/>
<path d="M41.5865 9.86038C41.5865 8.2059 42.7665 6.91001 44.7238 6.91001H60.2954V10.3646H46.6092C46.2636 10.3646 46.1344 10.6237 46.1344 10.7965C46.1344 10.9693 46.2636 11.2285 46.6092 11.2285H57.7333C59.6909 11.2285 60.8707 12.3799 60.8707 14.0344C60.8707 15.6889 59.6909 16.9848 57.7333 16.9848H42.1618V13.5302H55.8483C56.1936 13.5302 56.3227 13.271 56.3227 13.0982C56.3227 12.9255 56.1936 12.6663 55.8483 12.6663H44.7238C42.7665 12.6663 41.5865 11.5149 41.5865 9.86038Z" fill="#D8F602"/>
<path d="M68.5833 10.3646H61.3014V6.91001H80.4425V10.3646H73.1312V16.9848H68.5833V10.3646Z" fill="#D8F602"/>
<path d="M81.5943 16.9839V6.91053H96.7055C99.2239 6.91053 100.735 8.92474 100.735 10.9401C100.735 12.681 99.5981 14.423 97.67 14.8691L100.735 16.985H94.863L91.9412 14.9708H86.1413V16.985H81.5932L81.5943 16.9839ZM86.1422 10.3639V11.5154H95.5541C95.9578 11.5154 96.1875 11.2998 96.1875 10.9401C96.1875 10.5804 95.9566 10.3648 95.5541 10.3648H86.1422V10.3639Z" fill="#D8F602"/>
<path d="M21.4428 16.9836H16.3196L15.154 15.5444H15.1523L12.8186 12.6674H12.8217L12.0374 11.7004L10.7214 10.0708L5.10223 16.9836H0L8.15995 6.91001H13.2831L21.4431 16.9836H21.4428Z" fill="#D8F602"/>
<path d="M113.081 23.9998C113.081 14.9075 110.349 11.9999 101.807 11.9999C110.349 11.9999 113.081 9.09229 113.081 0C113.081 9.09229 115.812 11.9999 124.354 11.9999C115.809 12.0033 113.081 14.9075 113.081 23.9998Z" fill="#D7F601"/>
</svg>
