<svg width="130" height="104" viewBox="0 0 130 104" fill="none" xmlns="http://www.w3.org/2000/svg">
<path d="M115.369 51.5258C63.0838 51.106 63.4231 50.7624 63.843 103.052C64.2629 50.7667 64.6064 51.106 12.3171 51.5258C64.6021 51.9457 64.2629 52.2892 63.843 0C63.4231 52.285 63.0796 51.9457 115.369 51.5258Z" fill="#D8F602"/>
<path d="M115.369 51.5258C63.0838 51.106 63.4231 50.7624 63.843 103.052C64.2629 50.7667 64.6064 51.106 12.3171 51.5258C64.6021 51.9457 64.2629 52.2892 63.843 0C63.4231 52.285 63.0796 51.9457 115.369 51.5258Z" fill="#D8F602"/>
<path d="M128.762 9.69214C121.81 -0.397582 87.6393 11.096 52.4376 35.3427C17.2191 59.6063 -5.70016 87.4241 1.23838 97.5011C8.17267 107.578 42.3479 96.0973 77.5623 71.8336C112.781 47.5869 135.696 19.7691 128.762 9.69214ZM84.2463 61.3834C54.5285 81.847 25.9643 91.9537 20.4466 83.9548C14.9288 75.9433 34.5569 52.8629 64.2917 32.3823C94.0052 11.923 122.574 1.8163 128.087 9.82785C133.605 17.8267 113.977 40.9071 84.2421 61.3834H84.2463Z" fill="#D8F602"/>
</svg>
