<svg width="24" height="13" viewBox="0 0 24 13" fill="none" xmlns="http://www.w3.org/2000/svg">
<path d="M0 3.66969C0 1.61183 1.46773 0 3.90221 0H23.2702V4.29681H6.2472C5.81738 4.29681 5.65673 4.61918 5.65673 4.83409C5.65673 5.049 5.81738 5.37136 6.2472 5.37136H20.0836C22.5184 5.37136 23.9858 6.80351 23.9858 8.86136C23.9858 10.9192 22.5184 12.5311 20.0836 12.5311H0.715549V8.23425H17.7389C18.1684 8.23425 18.3291 7.91188 18.3291 7.69697C18.3291 7.48206 18.1684 7.15969 17.7389 7.15969H3.90221C1.46773 7.15969 0 5.72755 0 3.66969Z" fill="#D7F601"/>
</svg>
