<svg width="26" height="26" viewBox="0 0 26 26" fill="none" xmlns="http://www.w3.org/2000/svg">
<path d="M9.42118 14.8913C7.44892 13.2353 4.42371 12.5768 -1.90735e-06 12.5768C4.42371 12.5768 7.44892 11.9183 9.42118 10.2622C8.87351 9.12452 7.93465 7.93139 6.59482 6.59482C7.93139 7.93139 9.12778 8.87025 10.2622 9.42118C11.9183 7.44892 12.5768 4.42372 12.5768 0C12.5768 4.42372 13.2353 7.44892 14.8913 9.42118C16.029 8.87351 17.2222 7.93465 18.5587 6.59482C17.2222 7.93139 16.2833 9.12778 15.7324 10.2622C17.7046 11.9183 20.7298 12.5768 25.1536 12.5768C20.7298 12.5768 17.7046 13.2353 15.7324 14.8913C16.2801 16.029 17.2189 17.2222 18.5587 18.5587C17.2222 17.2222 16.0258 16.2833 14.8913 15.7324C13.2353 17.7046 12.5768 20.7298 12.5768 25.1536C12.5768 20.7298 11.9183 17.7046 10.2622 15.7324C9.12452 16.2801 7.93139 17.2189 6.59482 18.5587C7.93465 17.2222 8.87351 16.029 9.42118 14.8913Z" fill="#5B1DD6"/>
</svg>
