<svg width="212" height="139" viewBox="0 0 212 139" fill="none" xmlns="http://www.w3.org/2000/svg">
<path d="M5.88418 66.3787C5.50808 67.7823 5.33405 69.185 5.35287 70.6211C5.47148 81.2018 16.3534 90.7772 35.9516 97.6063C54.8105 104.182 79.779 107.607 106.234 107.265C132.688 106.924 157.56 102.837 176.235 95.788C195.651 88.4417 206.27 78.5918 206.13 68.0236C205.99 57.4554 195.125 47.8846 175.51 41.051C156.651 34.475 131.682 31.0503 105.228 31.3919C52.744 32.0608 11.0486 47.105 5.88418 66.3787ZM201.11 71.0814C199.142 78.4246 189.743 85.703 174.598 91.4232C156.411 98.2915 132.118 102.276 106.179 102.609C80.2401 102.942 55.8548 99.6003 37.4956 93.2133C20.1281 87.1654 10.1224 78.9072 10.0046 70.5833C9.89125 62.2422 19.6932 53.7326 36.8977 47.2432C55.0844 40.3749 79.378 36.3904 105.317 36.0573C131.243 35.7026 155.628 39.0444 174.005 45.436C191.372 51.4839 201.378 59.7421 201.496 68.066C201.5 69.0763 201.376 70.0886 201.11 71.0814Z" fill="#5B1DD6"/>
<path d="M23.4015 60.3571C23.0805 61.5553 22.9227 62.7606 22.9452 63.9774C23.067 72.8345 32.0798 80.8267 48.3235 86.4817C63.8278 91.8836 84.336 94.7002 106.079 94.4169C127.821 94.1336 148.24 90.7803 163.61 84.9737C179.716 78.887 188.507 70.6571 188.398 61.8217C188.276 52.9646 179.263 44.9725 163.02 39.3174C147.516 33.9156 127.007 31.0989 105.265 31.3822C83.5222 31.6655 63.1036 35.0188 47.7332 40.8255C33.8554 46.0598 25.4013 52.8941 23.4015 60.3571ZM183.427 64.214C180.13 76.5212 149.93 89.1968 106.019 89.7778C84.8096 90.0572 64.8674 87.3188 49.8629 82.1059C35.8032 77.2011 27.7042 70.5913 27.6139 63.9442C27.5237 57.2971 35.4619 50.4713 49.3831 45.212C64.2431 39.5987 84.1182 36.3567 105.328 36.0773C152.008 35.4311 183.547 48.9089 183.72 61.8892C183.733 62.6631 183.638 63.4267 183.427 64.214Z" fill="#5B1DD6"/>
<path d="M40.9134 54.3754C40.6519 55.3511 40.532 56.3463 40.5411 57.3395C40.6273 64.4808 47.7928 70.8772 60.6773 75.3753C72.8269 79.6032 88.8921 81.8163 105.901 81.6038C122.909 81.3913 138.919 78.7462 150.958 74.2118C163.737 69.3802 170.713 62.7919 170.622 55.6676C170.536 48.5263 163.37 42.1299 150.486 37.6318C138.336 33.4039 122.271 31.1907 105.262 31.4033C88.249 31.6329 72.2443 34.2609 60.2051 38.7953C49.2087 42.9304 42.5186 48.3845 40.9134 54.3754ZM165.748 57.4254C164.569 61.8245 158.734 66.2785 149.325 69.8299C137.792 74.188 122.348 76.7094 105.85 76.9305C89.3577 77.1345 73.8712 75.0213 62.2088 70.9607C51.4523 67.2162 45.2691 62.2205 45.2019 57.2674C45.1348 52.3144 51.2138 47.1552 61.8471 43.143C73.3803 38.7848 88.8245 36.2635 105.305 36.0378C121.797 35.8338 137.284 37.947 148.946 42.0076C159.703 45.752 165.903 50.7524 165.953 55.7009C165.965 56.2728 165.899 56.8606 165.748 57.4254Z" fill="#5B1DD6"/>
<path d="M58.4328 48.2805C58.2264 49.0508 58.1181 49.8657 58.1343 50.6956C58.2955 62.8288 82.787 69.061 105.746 68.7552C118.043 68.601 129.616 66.6937 138.316 63.3926C147.769 59.8162 152.929 54.8694 152.861 49.4392C152.7 37.306 128.208 31.0737 105.249 31.3796C83.8545 31.6644 61.281 37.6508 58.4328 48.2805ZM148.066 50.5578C147.282 53.4848 143.151 56.5791 136.679 59.0278C128.455 62.1263 117.459 63.9315 105.696 64.0818C80.5095 64.4147 62.8728 57.2489 62.7951 50.6235C62.7174 43.9982 80.1516 36.3778 105.321 36.0404C130.486 35.7201 148.127 42.8687 148.2 49.5112C148.199 49.8594 148.163 50.1984 148.066 50.5578Z" fill="#5B1DD6"/>
<path d="M75.9266 42.3434C75.7661 42.9425 75.7049 43.5131 75.7134 44.0291C75.8145 52.0734 90.809 56.0912 105.556 55.8965C113.123 55.796 120.262 54.6265 125.652 52.5851C133.508 49.6266 135.118 45.8753 135.072 43.2395C135.039 40.6254 133.335 36.9215 125.399 34.1529C119.963 32.2561 112.797 31.2716 105.212 31.3675C97.6453 31.468 90.5072 32.6375 85.1169 34.6789C78.8608 37.0754 76.5687 39.947 75.9266 42.3434ZM130.379 43.7064C130.067 44.8704 128.275 46.6284 124.01 48.2374C119.113 50.0808 112.548 51.1654 105.501 51.2402C90.221 51.4388 80.4207 47.07 80.3742 43.9571C80.3676 42.8178 82.0343 40.8428 86.7931 39.0357C91.69 37.1924 98.255 36.1078 105.302 36.0329C112.353 35.9409 118.936 36.8426 123.889 38.5551C128.688 40.2263 130.41 42.1552 130.433 43.299C130.435 43.428 130.416 43.5695 130.379 43.7064Z" fill="#5B1DD6"/>
</svg>
