<svg width="186" height="100" viewBox="0 0 186 100" fill="none" xmlns="http://www.w3.org/2000/svg">
<g clip-path="url(#clip0_283_3482)">
<path d="M19.3451 49.9595C19.3451 27.4719 64.2865 3.85231 110.377 2.34863C49.0132 3.36235 0 24.2787 0 49.9595C0 75.6234 49.0132 96.5397 110.377 97.5535C64.2865 96.0498 19.3451 72.4471 19.3451 49.9595Z" fill="#D7F601"/>
<path d="M173.937 99.9017C143.897 99.4118 115.817 94.1742 94.8501 85.169C73.1903 75.8597 61.2454 63.3573 61.2454 49.9593C61.2454 36.5614 73.1734 24.0589 94.8501 14.7496C115.817 5.7275 143.897 0.489963 173.937 0L174.055 4.69688C130.094 6.13298 85.3042 28.9585 85.3042 49.9593C85.3042 70.9432 130.094 93.7687 174.055 95.2048L173.937 99.9017ZM120.159 11.3874C87.7878 19.4296 65.9591 33.8581 65.9591 49.9593C65.9591 66.0436 87.7878 80.4722 120.159 88.5143C96.8268 78.8671 80.5904 64.3879 80.5904 49.9593C80.5904 35.5139 96.8437 21.0177 120.159 11.3874Z" fill="#D7F601"/>
<path d="M141.65 58.746C151.597 58.746 159.66 54.805 159.66 49.9435C159.66 45.0821 151.597 41.1411 141.65 41.1411C131.703 41.1411 123.64 45.0821 123.64 49.9435C123.64 54.805 131.703 58.746 141.65 58.746Z" fill="#D7F601"/>
<path d="M174.815 55.7362C180.993 55.7362 186 53.1416 186 49.9411C186 46.7405 180.993 44.146 174.815 44.146C168.638 44.146 163.631 46.7405 163.631 49.9411C163.631 53.1416 168.638 55.7362 174.815 55.7362Z" fill="#D7F601"/>
</g>
<defs>
<clipPath id="clip0_283_3482">
<rect width="186" height="99.9017" fill="white"/>
</clipPath>
</defs>
</svg>
